<?xml version="1.0" encoding="utf-8"?>
<!-- Generator: Adobe Illustrator 26.3.1, SVG Export Plug-In . SVG Version: 6.00 Build 0)  -->
<svg version="1.1" id="a" xmlns="http://www.w3.org/2000/svg" xmlns:xlink="http://www.w3.org/1999/xlink" x="0px" y="0px"
	 viewBox="0 0 267.9 320.8" style="enable-background:new 0 0 267.9 320.8;" xml:space="preserve">
<style type="text/css">
	.st0{opacity:0.5;fill:none;stroke:#F1C767;stroke-miterlimit:10;enable-background:new    ;}
	.st1{opacity:0.5;}
	.st2{fill:none;stroke:#DF804B;stroke-miterlimit:10;}
	.st3{fill:none;stroke:#243857;stroke-miterlimit:10;}
	.st4{fill:none;stroke:#243857;stroke-width:2;stroke-linecap:round;stroke-miterlimit:10;}
	.st5{fill:#F1C767;}
	.st6{fill:none;stroke:#DF804B;stroke-width:2.11;stroke-miterlimit:10;}
	.st7{fill:#243857;stroke:#DF804B;stroke-width:2.11;stroke-miterlimit:10;}
	.st8{fill:#243857;}
	.st9{opacity:0.5;fill:none;stroke:#F1C767;stroke-width:2.11;stroke-miterlimit:10;enable-background:new    ;}
	.st10{opacity:0.5;fill:none;stroke:#DF804B;stroke-width:2.11;stroke-miterlimit:10;enable-background:new    ;}
	.st11{fill:none;stroke:#F1C767;stroke-width:2.11;stroke-linecap:round;stroke-miterlimit:10;}
	.st12{opacity:0.5;fill:none;stroke:#DF804B;stroke-width:7;stroke-miterlimit:10;}
	.st13{opacity:0.5;fill:none;stroke:#F1C767;stroke-width:6;stroke-miterlimit:10;}
	.st14{opacity:0.5;fill:none;stroke:#243857;stroke-width:2;stroke-miterlimit:10;}
</style>
<path class="st0" d="M-89.9,140.2c-4.3-3-10.3-6.9-13.8-11s1.4-5.6,4-3.2c2.6,2.4,8.4,5.6,10.2,4.3s-20.6-19.1-21.8-21.4
	s0.3-3.3,1.7-3.4c2.5-0.1,15.9,13.6,18.4,12.8s-16.5-13.8-17.4-16.7s2.4-4,3.3-3.5c0.8,0.4,17.5,16.8,18.9,15.7
	s-12.8-15.5-13.6-17.2s0.7-3.1,3.1-2.7c1.9,0.3,12.3,11.8,16.5,16.6c0.3,0.3,0.9,0,0.7-0.4c0,0-8.1-12.9-8-13.9s2.1-2.3,3.3-1.6
	c0.8,0.5,8,10.8,11.3,13.5c9.2,7.7,13.3,15.8,14,23.9c1.1,11.9-12.8,11.2-12.8,11.2S-85.6,143.2-89.9,140.2L-89.9,140.2z"/>
<g class="st1">
	<polygon class="st2" points="-196,18.2 -147.8,0.7 -137.8,0.7 -144.9,7.5 -203.8,29.6 -206.7,22.4 	"/>
	<line class="st2" x1="-197.4" y1="23.1" x2="-147.4" y2="4.7"/>
	<line class="st3" x1="-202.8" y1="20.9" x2="-200" y2="28.2"/>
	<line class="st3" x1="-200.8" y1="20.1" x2="-198.2" y2="27.5"/>
	<polyline class="st4" points="-143.7,1 -138.3,1 -142.1,4.4 	"/>
</g>
<g class="st1">
	<path class="st5" d="M-187,59c2.9,2.8,8.7,7.1,12.1,12.2c-1.3,7.1-4.6,9.4-4.6,9.4s-13.2-12.5-16.1-15.3c-2-1.9,0.1-1.7-0.3-3.9
		c-0.2-1.2-3.4-3.2-1.2-4.8c2.2-1.6,3.5,1.5,5.6,1.7C-190.6,58.3-188.8,57.3-187,59z"/>
	<path class="st6" d="M-187.3,58.5l27.3,25.1l-8.1,8.7l-27.3-25.1c-2.2-2-0.1-2.1-0.7-4.7c-0.4-1.4-3.8-3.5-1.8-5.7s3.7,1.4,5.8,1.3
		C-191,58.2-189.3,56.7-187.3,58.5L-187.3,58.5z"/>
	<path class="st7" d="M-169.5,93.5c-0.6-0.5,10-12,10.6-11.5l3.3,3c0.6,0.5-10,12-10.6,11.5L-169.5,93.5z"/>
	<path class="st7" d="M-157.4,88c0,0,8.2,6.5,4.6,10.3s-10.7-3.8-10.7-3.8S-157.4,88-157.4,88z"/>
</g>
<g class="st1">
	<path class="st6" d="M-55.1,3.3l26.8,9.5c6.2,2.2,9.5,9.1,7.3,15.3l-3.2,8.9c-2.2,6.2-9.1,9.5-15.3,7.3l-26.8-9.5
		c-6.2-2.2-9.5-9.1-7.3-15.3l3.2-8.9C-68.2,4.4-61.3,1.1-55.1,3.3z"/>
	<polygon class="st8" points="-51,15.6 -55.9,29.2 -37.8,28.7 	"/>
</g>
<polyline class="st9" points="-46.5,75.9 -63.9,75.3 -54.3,90 "/>
<polyline class="st10" points="-39.2,80 -29.7,94.6 -47.2,94 "/>
<g class="st1">
	<path class="st11" d="M-190.9,113.2c3.6,1.7,1.6,5.8,5.1,7.5c3.5,1.7,5.5-2.4,9.1-0.7s1.6,5.8,5.1,7.5s5.5-2.4,9.1-0.7
		c3.6,1.7,1.6,5.8,5.1,7.5s5.5-2.4,9.1-0.7s1.6,5.8,5.1,7.5s5.5-2.4,9.1-0.7"/>
</g>
<g class="st1">
	<path class="st5" d="M-124.8,43.3c0,0,2.6-11.7,9-12.6c19-2.5,16.4,19.1,12.8,30.8c-0.7,2.4-4,4.4-4.1,6.3c-0.3,7-2,7.2-5.6,7.5
		c-4.7,0.4-7.5-7.8-7.5-7.8"/>
	<path class="st5" d="M-119.6,42.8c0,0,4.3,1.2,5.5-1.1s-2.3-5-2.3-5"/>
	<path class="st5" d="M-108.7,38.5c1.9,10-8.2,5.6-6.2,15.8c0.7,3.4-1.3,2.8-2.9,1.7s-4.6-3.7-4.6,3.1c0,1.8,4.2,1.7,4.2,1.7
		c1.4-0.6,0.7,2.3,2.4,5.6s6.3,1.3,8-4.6c0.8-3-0.1-8.1,1-13.2s-1.9-13.2-6.6-13.3s-5.8,3.2-6.2,7.6s1.9,6.5-3.2,7.7
		s-8.2-4.5-8.2-4.5"/>
</g>
<path class="st12" d="M20.1,38.8c-18.1,49.3-15.7,108.9,14,100c29.7-8.9,42.5,73.9,108.7-36.2c6.2-10.4,31.2,0.6,32.9-20.5
	s25.8-22.8,3-52.8s-65.6-5.7-93.6-6S38.2-10.5,20.1,38.8z"/>
<path class="st12" d="M172.7,166.6c-36.9,2.1-76.5,18.3-64.3,32.7s-40.9,42.3,46.8,52.1c8.3,0.9,6,17.7,20.6,13.4
	s20.6,8.8,36.1-11.5c15.5-20.3-9.7-38.3-15.3-54.1C191.1,183.5,209.6,164.5,172.7,166.6z"/>
<path class="st13" d="M138.8,44.8c-34.7,22.4-37.6,63.4-51.4,74.2c-62.8,49.1-18.6,93.5-3.2,93.4c51.6-0.4,50.6-28.9,58.9-15.1
	c8.3,13.7,28.7,98.3,58.2,102.1c29.5,3.8,44.8-75.3,51.7-113.2s2.2-104.9-6.9-121.5C230.2,35.2,173.5,22.4,138.8,44.8z"/>
<path class="st13" d="M165.6,375.7c-11-39.8-49.2-54.8-55.4-71.2c-28.1-74.7-83.6-45.7-88.1-31c-15.1,49.3,12.4,56.9-3.2,60.7
	s-102.4-2-114.8,25s58.5,65.3,92.5,83.2c34,17.9,99.4,33.5,118,29.8C147.4,465.7,176.6,415.5,165.6,375.7z"/>
<path class="st14" d="M29.1,187.9c-10.5,43.5-45.9,136.2,68.1,115.7c17.7-3.2,52.2,7.4,47.4-16.8c-5-24.6,59.2-23.4,58.1-49.1
	c-1.6-36.1-66.8-35.4-93-47.4S39.6,144.4,29.1,187.9z"/>
<path class="st14" d="M227.7,19.7c-39.4-3.2-81.4-15.2-93.3,14.6c-4,10.1-7.3,37.4-2.3,50.4c5,13-1.5,40.8,19.4,34.3
	c21.2-6.5,26.3,42.7,48.9,38.9c31.7-5.3,24.8-55.1,32.8-76.4C241.3,60.1,267.1,22.9,227.7,19.7z"/>
</svg>
