<?xml version="1.0" encoding="UTF-8"?><svg id="a" xmlns="http://www.w3.org/2000/svg" viewBox="0 0 267.91 320.8"><defs><style>.cls-1{stroke:#f1c767;stroke-width:6px;}.cls-1,.cls-2,.cls-3{fill:none;opacity:.5;stroke-miterlimit:10;}.cls-2{stroke:#243857;stroke-width:2px;}.cls-3{stroke:#df804b;stroke-width:7px;}</style></defs><path class="cls-3" d="M20.08,38.83C1.95,88.17,4.33,147.78,34.07,138.83c29.74-8.95,42.52,73.95,108.7-36.18,6.23-10.37,31.18,.64,32.93-20.55s25.77-22.78,2.99-52.83c-22.78-30.06-65.64-5.72-93.56-6.05-27.92-.33-46.93-33.72-65.07,15.61Z"/><path class="cls-3" d="M172.71,166.56c-36.92,2.09-76.5,18.26-64.34,32.74,12.16,14.48-40.93,42.28,46.8,52.06,8.26,.92,6.01,17.67,20.62,13.39,14.61-4.28,20.64,8.81,36.14-11.46,15.5-20.27-9.72-38.29-15.27-54.06s12.97-34.75-23.95-32.67Z"/><path class="cls-1" d="M138.82,44.77c-34.67,22.36-37.57,63.37-51.37,74.15-62.83,49.13-18.64,93.46-3.21,93.35,51.56-.35,50.57-28.86,58.9-15.11,8.33,13.75,28.73,98.28,58.25,102.1s44.77-75.34,51.67-113.16c6.9-37.82,2.19-104.86-6.9-121.52-16.01-29.35-72.67-42.16-107.34-19.81Z"/><path class="cls-2" d="M29.11,187.9c-10.5,43.5-30.8,64.17,3.61,106.09,8.2,9.99,46.92,13.37,64.48,9.63s52.25,7.44,47.35-16.82,59.23-23.37,58.07-49.11c-1.63-36.09-66.85-35.44-93.04-47.36-26.2-11.92-69.97-45.92-80.47-2.42Z"/><path class="cls-2" d="M227.67,19.69c-39.39-3.19-59.58-16.41-93.25,14.57-8.02,7.38-7.27,37.37-2.27,50.38,5,13.01-1.52,40.78,19.41,34.34,21.21-6.53,26.33,42.69,48.93,38.93,31.68-5.26,24.82-55.06,32.81-76.42,7.99-21.36,33.76-58.62-5.63-61.8Z"/></svg>