<?xml version="1.0" encoding="UTF-8"?><svg id="a" xmlns="http://www.w3.org/2000/svg" viewBox="0 0 188.15 143.55"><defs><style>.b,.c,.d,.e,.f,.g,.h,.i,.j,.k{stroke-miterlimit:10;}.b,.c,.d,.f,.g,.h,.i,.j,.k{fill:none;}.b,.c,.d,.g{stroke:#f1c767;}.b,.g,.h,.l{opacity:.5;}.m{fill:#f1c767;}.n,.e{fill:#243857;}.c,.d,.f{stroke-linecap:round;}.d{stroke-width:2.11px;}.e,.g,.h,.k{stroke-width:2.11px;}.e,.h,.j,.k{stroke:#df804b;}.f{stroke-width:2px;}.f,.i{stroke:#243857;}</style></defs><path class="b" d="M117.48,140.2c-4.27-3-10.27-6.88-13.77-10.99s1.38-5.6,4-3.23,8.45,5.61,10.25,4.3-20.64-19.14-21.83-21.4,.31-3.33,1.72-3.37c2.5-.06,15.95,13.62,18.36,12.76s-16.49-13.85-17.36-16.72,2.36-4.04,3.35-3.52c.78,.4,17.54,16.77,18.87,15.74s-12.82-15.54-13.6-17.24,.71-3.13,3.14-2.74c1.91,.31,12.26,11.76,16.53,16.56,.29,.33,.9-.04,.72-.44,0,0-8.05-12.91-8.02-13.95s2.1-2.34,3.29-1.57c.77,.49,8.02,10.79,11.26,13.51,9.19,7.72,13.32,15.8,14.04,23.93,1.06,11.87-12.84,11.22-12.84,11.22,0,0-13.85,.15-18.12-2.85Z"/><g class="l"><polygon class="j" points="11.39 18.24 59.52 .7 69.6 .7 62.45 7.53 3.58 29.64 .65 22.41 11.39 18.24"/><line class="j" x1="9.91" y1="23.13" x2="60" y2="4.71"/><line class="i" x1="4.55" y1="20.89" x2="7.38" y2="28.21"/><line class="i" x1="6.53" y1="20.12" x2="9.2" y2="27.53"/><polyline class="f" points="63.61 1.01 69.1 1 65.24 4.42"/></g><g class="l"><path class="m" d="M20.35,59c2.94,2.78,8.68,7.11,12.05,12.19-1.29,7.05-4.64,9.45-4.64,9.45,0,0-13.19-12.5-16.13-15.28-1.96-1.86,.11-1.72-.27-3.91-.21-1.21-3.43-3.25-1.25-4.84s3.54,1.53,5.61,1.66c1.04,.07,2.86-.94,4.63,.73Z"/><path class="k" d="M20.07,58.53l27.33,25.14-8.05,8.73-27.33-25.14c-2.19-2.01-.09-2.1-.72-4.7-.35-1.44-3.83-3.52-1.81-5.7s3.74,1.42,5.84,1.34c1.05-.04,2.77-1.48,4.75,.33Z"/><path class="e" d="M37.82,93.51c-.55-.5,10.02-11.96,10.56-11.46l3.28,3.02c.55,.5-10.02,11.96-10.56,11.46l-3.28-3.02Z"/><path class="e" d="M49.94,88.03s8.16,6.49,4.63,10.31-10.67-3.76-10.67-3.76l6.04-6.55Z"/></g><g class="l"><rect class="k" x="133.87" y="7.08" width="52.47" height="33.49" rx="12" ry="12" transform="translate(17.11 -52.02) rotate(19.48)"/><polygon class="n" points="156.31 15.58 151.49 29.23 169.59 28.67 156.31 15.58"/></g><polyline class="g" points="160.86 75.91 143.46 75.31 153.05 89.97"/><polyline class="h" points="168.13 80.02 177.62 94.62 160.11 93.96"/><g class="l"><path class="d" d="M16.47,113.24c3.55,1.71,1.58,5.81,5.13,7.51s5.52-2.39,9.07-.69,1.58,5.81,5.13,7.51,5.52-2.39,9.07-.69,1.58,5.8,5.13,7.51,5.52-2.39,9.08-.68,1.59,5.81,5.14,7.52,5.53-2.39,9.08-.68"/></g><g class="l"><path class="d" d="M82.53,43.29s2.57-11.72,9.02-12.56c19.04-2.46,16.37,19.08,12.76,30.79-.73,2.37-3.97,4.35-4.05,6.3-.28,6.96-2.04,7.19-5.56,7.52-4.69,.43-7.46-7.85-7.46-7.85"/><path class="c" d="M87.8,42.84s4.27,1.2,5.5-1.12-2.31-5.01-2.31-5.01"/><path class="c" d="M98.68,38.45c1.9,10.05-8.18,5.64-6.18,15.79,.66,3.37-1.27,2.83-2.93,1.66s-4.6-3.69-4.61,3.08c0,1.81,4.23,1.71,4.23,1.71,1.44-.58,.69,2.32,2.36,5.56s6.34,1.33,7.99-4.57c.83-2.96-.12-8.11,1.04-13.19s-1.88-13.25-6.59-13.27-5.83,3.16-6.19,7.61,1.93,6.53-3.22,7.69-8.2-4.46-8.2-4.46"/></g></svg>