<?xml version="1.0" encoding="UTF-8"?><svg xmlns="http://www.w3.org/2000/svg" viewBox="0 0 279.78 279.78"><defs><style>.e{fill:#f1c767;}.f{fill:#df804b;}.g{fill:#243857;}.h{stroke:#243857;stroke-width:13.9px;}.h,.i,.j,.k,.l{stroke-miterlimit:10;}.h,.k{fill:none;}.i,.j,.k{stroke-width:2.11px;}.i,.j,.k,.l{stroke:#000;}.i,.l{fill:#fff;}.j{fill:gray;}.l{stroke-width:1.47px;}</style></defs><g id="a"><path class="e" d="M151.97,12.95l-33,188,145-98s-9.03-31.56-42-61c-28-25-70-29-70-29Z"/><path class="f" d="M42.97,222.95l223-87s-21,78-82,124c-15.16,6.86-72.39,9.81-98-3-30-15-43-34-43-34Z"/><path class="g" d="M99.97,19.95c5,21,36.77,246.03,36.77,246.03L15.97,171.95S-16.03,63.95,99.97,19.95Z"/></g><g id="b"><g id="c"><path class="l" d="M101.06,114.06h0c-1.04-.45-1.53-1.67-1.08-2.71,0,0,5.56-10.65,6.6-10.2h0c1.04,.45,1.53,1.67,1.08,2.71l-3.89,9.11c-.45,1.04-1.66,1.53-2.71,1.09Z"/><path class="l" d="M139.42,113.51l-6.07,5.59c-1.17,1.08-1.24,2.92-.17,4.09h0c1.08,1.17,2.91,1.25,4.08,.17,0,0,7.31-8.51,6.24-9.68h0c-1.08-1.17-2.91-1.25-4.08-.17Z"/><path class="l" d="M103.22,113.09c5.93,.95,14.12-.03,14.91-14.27,6.68-6.63,5.57-8.99,5.18-12.27,4.09-.49,12.71-4.86,14.58-10.07,6.03,1.77,11.47-1.38,11.47-1.38,0,0,.69,5.74,3.11,12.11,1.25,3.27-4.23,6.33-7.21,9.19-6.23,5.96-16.81,5.35-16.68,20.31,.05,5.22,4.06,6.17,4.06,6.17,0,0,1.14-.77,12.12-9.78,8.32-6.82,12.92-3.05,21.72-5.94,11.99-3.94,7.69-1.46,17.13-9.55,22.31-1.02,33.02-15.62,47.31-28.15,5.55-1.45,13.9-3.32,15.86-4.04-7.88-11.12-14.54-18.24-21.81-24.47-4.06-3.48-14.17,5.97-32.6,4.85-27.62-1.67-28.99,7.64-43.21,6.86-9.01,1.08-15.89,6.07-22.67,11.88-9.26,7.93-5.14,5.61-12.55,13.16-3.27,3.33-6.35,13.61-7.37,21.69-1.28,10.14-2.2,9.42-3.34,13.71Z"/></g></g><g id="d"><path class="i" d="M79,164.72l28.42-44.57,14.24,9.1-28.42,44.57c-2.27,3.57-2.92,.64-6.4,2.18-1.93,.85-3.98,6.24-7.54,3.96-3.56-2.28,1.06-5.6,.42-8.52-.32-1.46-2.77-3.52-.72-6.73Z"/><path class="e" d="M79.72,163.8c3.41-5.35,8.22-15.27,15.28-22.27,12.28-1.48,17.69,2.03,17.69,2.03,0,0-15.32,23.99-18.73,29.34-2.27,3.57-2.92,.64-6.4,2.18-1.93,.85-3.98,6.24-7.54,3.96s1.06-5.6,.42-8.52c-.32-1.46-2.77-3.52-.72-6.73Z"/><path class="g" d="M79.72,163.8c3.41-5.35,6.11-8.69,11.77-16.86,9.53-3.64,18.41,1.11,18.41,1.11,0,0-12.53,19.5-15.94,24.85-2.27,3.57-2.92,.64-6.4,2.18-1.93,.85-3.98,6.24-7.54,3.96s1.06-5.6,.42-8.52c-.32-1.46-2.77-3.52-.72-6.73Z"/><path class="f" d="M79.72,163.8c3.41-5.35,6.96-15.45,13.18-12.04,4.85,2.66,13.39,1.8,13.39,1.8,0,0-8.92,14-12.33,19.34-2.27,3.57-2.92,.64-6.4,2.18-1.93,.85-3.98,6.24-7.54,3.96s1.06-5.6,.42-8.52c-.32-1.46-2.77-3.52-.72-6.73Z"/><path class="k" d="M79,164.72l28.42-44.57,14.24,9.1-28.42,44.57c-2.27,3.57-2.92,.64-6.4,2.18-1.93,.85-3.98,6.24-7.54,3.96-3.56-2.28,1.06-5.6,.42-8.52-.32-1.46-2.77-3.52-.72-6.73Z"/><path class="j" d="M123.6,131.12c-.57,.89-19.26-11.06-18.69-11.95l3.41-5.35c.57-.89,19.26,11.06,18.69,11.95l-3.41,5.35Z"/><path class="j" d="M112.89,115.49s7.07-13.05,13.3-9.07-2.62,15.89-2.62,15.89l-10.68-6.83Z"/><path class="f" d="M80.26,184.33s-10.91,24.69-.22,25.66c10.69,.97,.22-25.66,.22-25.66Z"/><circle class="h" cx="139.89" cy="139.89" r="132.94"/></g></svg>